STARTFONT 2.1
FONT M35049
SIZE 18 72 72
FONTBOUNDINGBOX 12 18 0 -2
STARTPROPERTIES 8
DEFAULT_CHAR 128273
FACE_NAME "M35049"
FONT_ASCENT 16
FONT_DESCENT 2
PIXEL_SIZE 18
POINT_SIZE 180
RESOLUTION_X 72
RESOLUTION_Y 72
ENDPROPERTIES
CHARS 240
STARTCHAR unif000
ENCODING 61440
SWIDTH 666 0
DWIDTH 12 0
BBX 12 18 0 -2
BITMAP
0000
0000
0000
0000
0000
0000
0000
0000
6660
6660
0000
0000
0000
0000
0000
0000
0000
0000
ENDCHAR
STARTCHAR unif001
ENCODING 61441
SWIDTH 666 0
DWIDTH 12 0
BBX 12 18 0 -2
BITMAP
0000
0000
6000
6000
6000
6000
6000
6000
6660
6660
6000
6000
6000
6000
6000
6000
0000
0000
ENDCHAR
STARTCHAR unif002
ENCODING 61442
SWIDTH 666 0
DWIDTH 12 0
BBX 12 18 0 -2
BITMAP
0000
0000
6600
6600
6600
6600
6600
6600
6660
6660
6600
6600
6600
6600
6600
6600
0000
0000
ENDCHAR
STARTCHAR unif003
ENCODING 61443
SWIDTH 666 0
DWIDTH 12 0
BBX 12 18 0 -2
BITMAP
0000
0000
6660
6660
6660
6660
6660
6660
6660
6660
6660
6660
6660
6660
6660
6660
0000
0000
ENDCHAR
STARTCHAR unif004
ENCODING 61444
SWIDTH 666 0
DWIDTH 12 0
BBX 12 18 0 -2
BITMAP
0000
0000
0660
0660
0660
0660
0660
0660
6660
6660
0660
0660
0660
0660
0660
0660
0000
0000
ENDCHAR
STARTCHAR unif005
ENCODING 61445
SWIDTH 666 0
DWIDTH 12 0
BBX 12 18 0 -2
BITMAP
0000
0000
0060
0060
0060
0060
0060
0060
6660
6660
0060
0060
0060
0060
0060
0060
0000
0000
ENDCHAR
STARTCHAR unif006
ENCODING 61446
SWIDTH 666 0
DWIDTH 12 0
BBX 12 18 0 -2
BITMAP
0000
0000
0600
0600
0600
0600
0600
0600
6660
6660
0600
0600
0600
0600
0600
0600
0000
0000
ENDCHAR
STARTCHAR uni23e9
ENCODING 9193
SWIDTH 666 0
DWIDTH 12 0
BBX 12 18 0 -2
BITMAP
0000
0000
0000
8400
C600
E700
F780
FFC0
FFE0
FFF0
FFE0
FFC0
F780
E700
C600
8400
0000
0000
ENDCHAR
STARTCHAR uni23ea
ENCODING 9194
SWIDTH 666 0
DWIDTH 12 0
BBX 12 18 0 -2
BITMAP
0000
0000
0000
0210
0630
0E70
1EF0
3FF0
7FF0
FFF0
7FF0
3FF0
1EF0
0E70
0630
0210
0000
0000
ENDCHAR
STARTCHAR unif007
ENCODING 61447
SWIDTH 666 0
DWIDTH 12 0
BBX 12 18 0 -2
BITMAP
0000
0000
0000
E400
E600
E700
E780
E7C0
E7E0
E7F0
E7E0
E7C0
E780
E700
E600
E400
0000
0000
ENDCHAR
STARTCHAR uni23f9
ENCODING 9209
SWIDTH 666 0
DWIDTH 12 0
BBX 12 18 0 -2
BITMAP
0000
0000
0000
7FE0
7FE0
7FE0
7FE0
7FE0
7FE0
7FE0
7FE0
7FE0
7FE0
7FE0
7FE0
7FE0
0000
0000
ENDCHAR
STARTCHAR uni23f8
ENCODING 9208
SWIDTH 666 0
DWIDTH 12 0
BBX 12 18 0 -2
BITMAP
0000
0000
0000
79E0
79E0
79E0
79E0
79E0
79E0
79E0
79E0
79E0
79E0
79E0
79E0
79E0
0000
0000
ENDCHAR
STARTCHAR uni23f5
ENCODING 9205
SWIDTH 666 0
DWIDTH 12 0
BBX 12 18 0 -2
BITMAP
0000
0000
C000
E000
F800
FC00
FF00
FF80
FFE0
FFF0
FFE0
FF80
FF00
FC00
F800
E000
C000
0000
ENDCHAR
STARTCHAR uni23fa
ENCODING 9210
SWIDTH 666 0
DWIDTH 12 0
BBX 12 18 0 -2
BITMAP
0000
0000
0000
0600
1F80
3FC0
7FE0
7FE0
FFF0
FFF0
FFF0
7FE0
7FE0
3FC0
1F80
0600
0000
0000
ENDCHAR
STARTCHAR uni261e
ENCODING 9758
SWIDTH 666 0
DWIDTH 12 0
BBX 12 18 0 -2
BITMAP
0000
0000
0000
0000
0000
0000
FFE0
8010
87E0
8100
8600
8100
8600
8100
FE00
0000
0000
0000
ENDCHAR
STARTCHAR uni261c
ENCODING 9756
SWIDTH 666 0
DWIDTH 12 0
BBX 12 18 0 -2
BITMAP
0000
0000
0000
0000
0000
0000
7FF0
8010
7F10
0810
0610
0810
0610
0810
07F0
0000
0000
0000
ENDCHAR
STARTCHAR uni0030
ENCODING 48
SWIDTH 666 0
DWIDTH 12 0
BBX 12 18 0 -2
BITMAP
0000
0000
1F80
3FC0
71E0
61E0
6360
6360
6660
6660
6C60
6C60
7860
78E0
3FC0
1F80
0000
0000
ENDCHAR
STARTCHAR uni0031
ENCODING 49
SWIDTH 666 0
DWIDTH 12 0
BBX 12 18 0 -2
BITMAP
0000
0000
0600
0E00
1E00
1E00
0600
0600
0600
0600
0600
0600
0600
0600
1F80
1F80
0000
0000
ENDCHAR
STARTCHAR uni0032
ENCODING 50
SWIDTH 666 0
DWIDTH 12 0
BBX 12 18 0 -2
BITMAP
0000
0000
1F80
3FC0
70E0
6060
0060
00E0
1FC0
3F80
7000
6000
6000
6000
7FE0
7FE0
0000
0000
ENDCHAR
STARTCHAR uni0033
ENCODING 51
SWIDTH 666 0
DWIDTH 12 0
BBX 12 18 0 -2
BITMAP
0000
0000
1F80
3FC0
70E0
6060
0060
00E0
07C0
07C0
00E0
0060
6060
70E0
3FC0
1F80
0000
0000
ENDCHAR
STARTCHAR uni0034
ENCODING 52
SWIDTH 666 0
DWIDTH 12 0
BBX 12 18 0 -2
BITMAP
0000
0000
0180
0380
0780
0F80
1D80
3980
7180
6180
6180
6180
7FE0
7FE0
0180
0180
0000
0000
ENDCHAR
STARTCHAR uni0035
ENCODING 53
SWIDTH 666 0
DWIDTH 12 0
BBX 12 18 0 -2
BITMAP
0000
0000
7FE0
7FE0
6000
6000
6000
7F80
7FC0
00E0
0060
0060
6060
70E0
3FC0
1F80
0000
0000
ENDCHAR
STARTCHAR uni0036
ENCODING 54
SWIDTH 666 0
DWIDTH 12 0
BBX 12 18 0 -2
BITMAP
0000
0000
1F80
3FC0
70E0
6060
6000
6000
7F80
7FC0
70E0
6060
6060
70E0
3FC0
1F80
0000
0000
ENDCHAR
STARTCHAR uni0037
ENCODING 55
SWIDTH 666 0
DWIDTH 12 0
BBX 12 18 0 -2
BITMAP
0000
0000
7FE0
7FE0
0060
0060
0060
00E0
01C0
0380
0700
0600
0600
0600
0600
0600
0000
0000
ENDCHAR
STARTCHAR uni0038
ENCODING 56
SWIDTH 666 0
DWIDTH 12 0
BBX 12 18 0 -2
BITMAP
0000
0000
1F80
3FC0
70E0
6060
6060
70E0
3FC0
3FC0
70E0
6060
6060
70E0
3FC0
1F80
0000
0000
ENDCHAR
STARTCHAR uni0039
ENCODING 57
SWIDTH 666 0
DWIDTH 12 0
BBX 12 18 0 -2
BITMAP
0000
0000
1F80
3FC0
70E0
6060
6060
70E0
3FE0
1FE0
0060
0060
6060
70E0
3FC0
1F80
0000
0000
ENDCHAR
STARTCHAR uni003a
ENCODING 58
SWIDTH 666 0
DWIDTH 12 0
BBX 12 18 0 -2
BITMAP
0000
0000
0000
0000
0000
0600
0600
0000
0000
0000
0000
0600
0600
0000
0000
0000
0000
0000
ENDCHAR
STARTCHAR uni003b
ENCODING 59
SWIDTH 666 0
DWIDTH 12 0
BBX 12 18 0 -2
BITMAP
0000
0000
0000
0000
0000
0600
0600
0000
0000
0000
0000
0600
0600
0200
0600
0000
0000
0000
ENDCHAR
STARTCHAR uni00b7
ENCODING 183
SWIDTH 666 0
DWIDTH 12 0
BBX 12 18 0 -2
BITMAP
0000
0000
0000
0000
0000
0000
0000
0600
0600
0000
0000
0000
0000
0000
0000
0000
0000
0000
ENDCHAR
STARTCHAR uni003d
ENCODING 61
SWIDTH 666 0
DWIDTH 12 0
BBX 12 18 0 -2
BITMAP
0000
0000
0000
0000
0000
0000
7FE0
7FE0
0000
0000
7FE0
7FE0
0000
0000
0000
0000
0000
0000
ENDCHAR
STARTCHAR uni0026
ENCODING 38
SWIDTH 666 0
DWIDTH 12 0
BBX 12 18 0 -2
BITMAP
0000
0000
0E00
1F00
3180
3180
3180
1B00
0E60
1CC0
36C0
6380
6180
6380
3F40
1E60
0000
0000
ENDCHAR
STARTCHAR uni003f
ENCODING 63
SWIDTH 666 0
DWIDTH 12 0
BBX 12 18 0 -2
BITMAP
0000
0000
1F80
3FC0
70E0
6060
0060
00E0
07C0
0780
0600
0600
0000
0000
0600
0600
0000
0000
ENDCHAR
STARTCHAR uni0021
ENCODING 33
SWIDTH 666 0
DWIDTH 12 0
BBX 12 18 0 -2
BITMAP
0000
0000
0600
0600
0600
0600
0600
0600
0600
0600
0600
0000
0000
0000
0600
0600
0000
0000
ENDCHAR
STARTCHAR uni0041
ENCODING 65
SWIDTH 666 0
DWIDTH 12 0
BBX 12 18 0 -2
BITMAP
0000
0000
0600
0F00
1F80
39C0
70E0
6060
6060
6060
7FE0
7FE0
6060
6060
6060
6060
0000
0000
ENDCHAR
STARTCHAR uni0042
ENCODING 66
SWIDTH 666 0
DWIDTH 12 0
BBX 12 18 0 -2
BITMAP
0000
0000
7F80
7FC0
30E0
3060
3060
30E0
3FC0
3FC0
30E0
3060
3060
30E0
7FC0
7F80
0000
0000
ENDCHAR
STARTCHAR uni0043
ENCODING 67
SWIDTH 666 0
DWIDTH 12 0
BBX 12 18 0 -2
BITMAP
0000
0000
1F80
3FC0
70E0
6060
6000
6000
6000
6000
6000
6000
6060
70E0
3FC0
1F80
0000
0000
ENDCHAR
STARTCHAR uni0044
ENCODING 68
SWIDTH 666 0
DWIDTH 12 0
BBX 12 18 0 -2
BITMAP
0000
0000
7F80
7FC0
30E0
3060
3060
3060
3060
3060
3060
3060
3060
30E0
7FC0
7F80
0000
0000
ENDCHAR
STARTCHAR uni0045
ENCODING 69
SWIDTH 666 0
DWIDTH 12 0
BBX 12 18 0 -2
BITMAP
0000
0000
7FE0
7FE0
6000
6000
6000
6000
7F80
7F80
6000
6000
6000
6000
7FE0
7FE0
0000
0000
ENDCHAR
STARTCHAR uni0046
ENCODING 70
SWIDTH 666 0
DWIDTH 12 0
BBX 12 18 0 -2
BITMAP
0000
0000
7FE0
7FE0
6000
6000
6000
6000
7F80
7F80
6000
6000
6000
6000
6000
6000
0000
0000
ENDCHAR
STARTCHAR uni0047
ENCODING 71
SWIDTH 666 0
DWIDTH 12 0
BBX 12 18 0 -2
BITMAP
0000
0000
1F80
3FC0
70E0
6060
6000
6000
63E0
63E0
6060
6060
6060
70E0
3FC0
1F80
0000
0000
ENDCHAR
STARTCHAR uni0048
ENCODING 72
SWIDTH 666 0
DWIDTH 12 0
BBX 12 18 0 -2
BITMAP
0000
0000
6060
6060
6060
6060
6060
6060
7FE0
7FE0
6060
6060
6060
6060
6060
6060
0000
0000
ENDCHAR
STARTCHAR uni0049
ENCODING 73
SWIDTH 666 0
DWIDTH 12 0
BBX 12 18 0 -2
BITMAP
0000
0000
1F80
1F80
0600
0600
0600
0600
0600
0600
0600
0600
0600
0600
1F80
1F80
0000
0000
ENDCHAR
STARTCHAR uni004a
ENCODING 74
SWIDTH 666 0
DWIDTH 12 0
BBX 12 18 0 -2
BITMAP
0000
0000
1FE0
1FE0
0180
0180
0180
0180
0180
0180
0180
0180
6180
7380
3F00
1E00
0000
0000
ENDCHAR
STARTCHAR uni004b
ENCODING 75
SWIDTH 666 0
DWIDTH 12 0
BBX 12 18 0 -2
BITMAP
0000
0000
6060
60E0
61C0
6380
6700
7E00
7C00
7C00
6E00
6700
6380
61C0
60E0
6060
0000
0000
ENDCHAR
STARTCHAR uni004c
ENCODING 76
SWIDTH 666 0
DWIDTH 12 0
BBX 12 18 0 -2
BITMAP
0000
0000
6000
6000
6000
6000
6000
6000
6000
6000
6000
6000
6000
6000
7FE0
7FE0
0000
0000
ENDCHAR
STARTCHAR uni004d
ENCODING 77
SWIDTH 666 0
DWIDTH 12 0
BBX 12 18 0 -2
BITMAP
0000
0000
6060
70E0
79E0
7FE0
6F60
6660
6060
6060
6060
6060
6060
6060
6060
6060
0000
0000
ENDCHAR
STARTCHAR uni004e
ENCODING 78
SWIDTH 666 0
DWIDTH 12 0
BBX 12 18 0 -2
BITMAP
0000
0000
6060
6060
6060
7060
7860
7C60
6E60
6760
63E0
61E0
60E0
6060
6060
6060
0000
0000
ENDCHAR
STARTCHAR uni004f
ENCODING 79
SWIDTH 666 0
DWIDTH 12 0
BBX 12 18 0 -2
BITMAP
0000
0000
1F80
3FC0
70E0
6060
6060
6060
6060
6060
6060
6060
6060
70E0
3FC0
1F80
0000
0000
ENDCHAR
STARTCHAR uni0050
ENCODING 80
SWIDTH 666 0
DWIDTH 12 0
BBX 12 18 0 -2
BITMAP
0000
0000
7F80
7FC0
60E0
6060
6060
60E0
7FC0
7F80
6000
6000
6000
6000
6000
6000
0000
0000
ENDCHAR
STARTCHAR uni0051
ENCODING 81
SWIDTH 666 0
DWIDTH 12 0
BBX 12 18 0 -2
BITMAP
0000
0000
1F80
3FC0
70E0
6060
6060
6060
6060
6060
6E60
6F60
6380
71C0
3EE0
1E60
0000
0000
ENDCHAR
STARTCHAR uni0052
ENCODING 82
SWIDTH 666 0
DWIDTH 12 0
BBX 12 18 0 -2
BITMAP
0000
0000
7F80
7FC0
60E0
6060
6060
60E0
7FC0
7F80
6600
6700
6380
61C0
60E0
6060
0000
0000
ENDCHAR
STARTCHAR uni0053
ENCODING 83
SWIDTH 666 0
DWIDTH 12 0
BBX 12 18 0 -2
BITMAP
0000
0000
1F80
3FC0
70E0
6060
6000
7000
3F80
1FC0
00E0
0060
6060
70E0
3FC0
1F80
0000
0000
ENDCHAR
STARTCHAR uni0054
ENCODING 84
SWIDTH 666 0
DWIDTH 12 0
BBX 12 18 0 -2
BITMAP
0000
0000
7FE0
7FE0
0600
0600
0600
0600
0600
0600
0600
0600
0600
0600
0600
0600
0000
0000
ENDCHAR
STARTCHAR uni0055
ENCODING 85
SWIDTH 666 0
DWIDTH 12 0
BBX 12 18 0 -2
BITMAP
0000
0000
6060
6060
6060
6060
6060
6060
6060
6060
6060
6060
6060
70E0
3FC0
1F80
0000
0000
ENDCHAR
STARTCHAR uni0056
ENCODING 86
SWIDTH 666 0
DWIDTH 12 0
BBX 12 18 0 -2
BITMAP
0000
0000
6060
6060
6060
6060
6060
6060
6060
6060
6060
70E0
39C0
1F80
0F00
0600
0000
0000
ENDCHAR
STARTCHAR uni0057
ENCODING 87
SWIDTH 666 0
DWIDTH 12 0
BBX 12 18 0 -2
BITMAP
0000
0000
6660
6660
6660
6660
6660
6660
6660
6660
6660
6660
6660
7FE0
3FC0
1980
0000
0000
ENDCHAR
STARTCHAR uni0058
ENCODING 88
SWIDTH 666 0
DWIDTH 12 0
BBX 12 18 0 -2
BITMAP
0000
0000
6060
6060
6060
70E0
39C0
1F80
0F00
0F00
1F80
39C0
70E0
6060
6060
6060
0000
0000
ENDCHAR
STARTCHAR uni0059
ENCODING 89
SWIDTH 666 0
DWIDTH 12 0
BBX 12 18 0 -2
BITMAP
0000
0000
6060
6060
6060
70E0
39C0
1F80
0F00
0600
0600
0600
0600
0600
0600
0600
0000
0000
ENDCHAR
STARTCHAR uni005a
ENCODING 90
SWIDTH 666 0
DWIDTH 12 0
BBX 12 18 0 -2
BITMAP
0000
0000
7FE0
7FE0
0060
00E0
01C0
0380
0700
0E00
1C00
3800
7000
6000
7FE0
7FE0
0000
0000
ENDCHAR
STARTCHAR uni0025
ENCODING 37
SWIDTH 666 0
DWIDTH 12 0
BBX 12 18 0 -2
BITMAP
0000
0000
0000
3020
4860
48C0
4980
3300
0600
0CC0
1920
3120
6120
40C0
0000
0000
0000
0000
ENDCHAR
STARTCHAR unif008
ENCODING 61448
SWIDTH 666 0
DWIDTH 12 0
BBX 12 18 0 -2
BITMAP
0000
0000
0600
1F80
30C0
6060
6060
7060
6860
6460
6260
6160
60E0
6060
6060
6060
0000
0000
ENDCHAR
STARTCHAR uni201d
ENCODING 8221
SWIDTH 666 0
DWIDTH 12 0
BBX 12 18 0 -2
BITMAP
0000
0000
1980
1980
0880
1100
0000
0000
0000
0000
0000
0000
0000
0000
0000
0000
0000
0000
ENDCHAR
STARTCHAR uni2019
ENCODING 8217
SWIDTH 666 0
DWIDTH 12 0
BBX 12 18 0 -2
BITMAP
0000
0000
0600
0600
0200
0400
0000
0000
0000
0000
0000
0000
0000
0000
0000
0000
0000
0000
ENDCHAR
STARTCHAR uni005e
ENCODING 94
SWIDTH 666 0
DWIDTH 12 0
BBX 12 18 0 -2
BITMAP
0000
0000
0000
0000
0000
0000
0000
0000
0000
0600
0F00
1980
30C0
6060
4020
0000
0000
0000
ENDCHAR
STARTCHAR uni005f
ENCODING 95
SWIDTH 666 0
DWIDTH 12 0
BBX 12 18 0 -2
BITMAP
0000
0000
0000
0000
0000
0000
0000
0000
0000
0000
0000
0000
0000
0000
0000
7FE0
7FE0
0000
ENDCHAR
STARTCHAR uni002a
ENCODING 42
SWIDTH 666 0
DWIDTH 12 0
BBX 12 18 0 -2
BITMAP
0000
0000
0000
0600
6660
76E0
3FC0
1F80
0F00
0F00
1F80
3FC0
76E0
6660
0600
0000
0000
0000
ENDCHAR
STARTCHAR uni002b
ENCODING 43
SWIDTH 666 0
DWIDTH 12 0
BBX 12 18 0 -2
BITMAP
0000
0000
0000
0000
0600
0600
0600
0600
7FE0
7FE0
0600
0600
0600
0600
0000
0000
0000
0000
ENDCHAR
STARTCHAR uni002c
ENCODING 44
SWIDTH 666 0
DWIDTH 12 0
BBX 12 18 0 -2
BITMAP
0000
0000
0000
0000
0000
0000
0000
0000
0000
0000
0000
0000
0000
0600
0600
0200
0400
0000
ENDCHAR
STARTCHAR uni002d
ENCODING 45
SWIDTH 666 0
DWIDTH 12 0
BBX 12 18 0 -2
BITMAP
0000
0000
0000
0000
0000
0000
0000
0000
3FC0
3FC0
0000
0000
0000
0000
0000
0000
0000
0000
ENDCHAR
STARTCHAR uni002e
ENCODING 46
SWIDTH 666 0
DWIDTH 12 0
BBX 12 18 0 -2
BITMAP
0000
0000
0000
0000
0000
0000
0000
0000
0000
0000
0000
0000
0000
0000
0600
0600
0000
0000
ENDCHAR
STARTCHAR uni002f
ENCODING 47
SWIDTH 666 0
DWIDTH 12 0
BBX 12 18 0 -2
BITMAP
0000
0000
0000
0000
0060
00E0
01C0
0380
0700
0E00
1C00
3800
7000
6000
0000
0000
0000
0000
ENDCHAR
STARTCHAR uni00b1
ENCODING 177
SWIDTH 666 0
DWIDTH 12 0
BBX 12 18 0 -2
BITMAP
0000
0000
0000
0600
0600
0600
0600
7FE0
7FE0
0600
0600
0600
0600
0000
7FE0
7FE0
0000
0000
ENDCHAR
STARTCHAR unif009
ENCODING 61449
SWIDTH 666 0
DWIDTH 12 0
BBX 12 18 0 -2
BITMAP
0000
0000
0000
7300
FB00
DB00
C300
C300
C3E0
C3F0
C330
C330
C330
DB30
FB30
7330
0000
0000
ENDCHAR
STARTCHAR uni26a1
ENCODING 9889
SWIDTH 666 0
DWIDTH 12 0
BBX 12 18 0 -2
BITMAP
0000
0000
0000
0000
0180
0300
0600
0C00
1FE0
00C0
0180
0300
0600
3FC0
1F80
0F00
0600
0000
ENDCHAR
STARTCHAR uni33c2
ENCODING 13250
SWIDTH 666 0
DWIDTH 12 0
BBX 12 18 0 -2
BITMAP
0000
0000
0000
1110
1110
29B0
29B0
4550
4550
4510
4510
7D10
4510
4510
4510
4510
0000
0000
ENDCHAR
STARTCHAR uni33d8
ENCODING 13272
SWIDTH 666 0
DWIDTH 12 0
BBX 12 18 0 -2
BITMAP
0000
0000
0000
7110
4910
45B0
45B0
4550
4950
7110
4110
4110
4110
4110
4110
4110
0000
0000
ENDCHAR
STARTCHAR uni23f0
ENCODING 9200
SWIDTH 666 0
DWIDTH 12 0
BBX 12 18 0 -2
BITMAP
0000
3FC0
7FE0
E070
C430
8410
8410
8410
8410
87D0
8010
8010
8010
C030
E070
7FE0
3FC0
0000
ENDCHAR
STARTCHAR unif00a
ENCODING 61450
SWIDTH 666 0
DWIDTH 12 0
BBX 12 18 0 -2
BITMAP
0000
0000
61C0
63E0
E770
E630
6630
6630
6630
6630
6630
6630
6630
6770
F3E0
F1C0
0000
0000
ENDCHAR
STARTCHAR unif00b
ENCODING 61451
SWIDTH 666 0
DWIDTH 12 0
BBX 12 18 0 -2
BITMAP
0000
0000
60C0
60C0
E1C0
E1C0
60C0
60C0
60C0
60C0
60C0
60C0
60C0
60C0
F1E0
F1E0
0000
0000
ENDCHAR
STARTCHAR unif00c
ENCODING 61452
SWIDTH 666 0
DWIDTH 12 0
BBX 12 18 0 -2
BITMAP
0000
0000
61C0
63E0
E770
E630
6030
6070
61E0
63C0
6700
6600
6600
6600
F7F0
F7F0
0000
0000
ENDCHAR
STARTCHAR uni007e
ENCODING 126
SWIDTH 666 0
DWIDTH 12 0
BBX 12 18 0 -2
BITMAP
0000
0000
0000
0000
0000
0000
0000
1800
3C20
7E60
67E0
43C0
0180
0000
0000
0000
0000
0000
ENDCHAR
STARTCHAR uni0061
ENCODING 97
SWIDTH 666 0
DWIDTH 12 0
BBX 12 18 0 -2
BITMAP
0000
0000
0000
0000
0000
1F00
3F80
31C0
00C0
1FC0
3FC0
71C0
60C0
70C0
3FE0
1FE0
0000
0000
ENDCHAR
STARTCHAR uni0062
ENCODING 98
SWIDTH 666 0
DWIDTH 12 0
BBX 12 18 0 -2
BITMAP
0000
0000
0000
0000
6000
6000
6000
6000
6F80
7FC0
70E0
6060
6060
60E0
7FC0
7F80
0000
0000
ENDCHAR
STARTCHAR uni0063
ENCODING 99
SWIDTH 666 0
DWIDTH 12 0
BBX 12 18 0 -2
BITMAP
0000
0000
0000
0000
0000
0000
1F80
3FC0
70E0
6000
6000
6000
6000
70E0
3FC0
1F80
0000
0000
ENDCHAR
STARTCHAR uni0064
ENCODING 100
SWIDTH 666 0
DWIDTH 12 0
BBX 12 18 0 -2
BITMAP
0000
0000
0000
0000
00C0
00C0
00C0
1FC0
3FC0
70C0
60C0
60C0
60C0
70C0
3FE0
1FE0
0000
0000
ENDCHAR
STARTCHAR uni0065
ENCODING 101
SWIDTH 666 0
DWIDTH 12 0
BBX 12 18 0 -2
BITMAP
0000
0000
0000
0000
0000
0000
1F80
3FC0
70E0
6060
7FE0
7FE0
6000
70E0
3FC0
1F80
0000
0000
ENDCHAR
STARTCHAR uni0066
ENCODING 102
SWIDTH 666 0
DWIDTH 12 0
BBX 12 18 0 -2
BITMAP
0000
0000
0780
0FC0
0CC0
0C00
0C00
3F00
3F00
0C00
0C00
0C00
0C00
0C00
0C00
0C00
0000
0000
ENDCHAR
STARTCHAR uni0067
ENCODING 103
SWIDTH 666 0
DWIDTH 12 0
BBX 12 18 0 -2
BITMAP
0000
0000
0000
0000
0000
0000
1F60
3FE0
70E0
6060
70E0
3FE0
1F60
0060
70E0
3FC0
1F80
0000
ENDCHAR
STARTCHAR uni0068
ENCODING 104
SWIDTH 666 0
DWIDTH 12 0
BBX 12 18 0 -2
BITMAP
0000
0000
6000
6000
6000
6000
6780
6FC0
78E0
7060
6060
6060
6060
6060
6060
6060
0000
0000
ENDCHAR
STARTCHAR uni0069
ENCODING 105
SWIDTH 666 0
DWIDTH 12 0
BBX 12 18 0 -2
BITMAP
0000
0000
0600
0600
0000
0000
0E00
0600
0600
0600
0600
0600
0600
0600
0600
0600
0000
0000
ENDCHAR
STARTCHAR uni006a
ENCODING 106
SWIDTH 666 0
DWIDTH 12 0
BBX 12 18 0 -2
BITMAP
0000
0000
0180
0180
0000
0000
0380
0180
0180
0180
0180
0180
0180
3180
3B80
1F00
0E00
0000
ENDCHAR
STARTCHAR uni006b
ENCODING 107
SWIDTH 666 0
DWIDTH 12 0
BBX 12 18 0 -2
BITMAP
0000
0000
6000
6000
6000
6000
6060
60E0
61C0
6380
6700
6F00
7F80
79C0
60E0
6060
0000
0000
ENDCHAR
STARTCHAR uni006c
ENCODING 108
SWIDTH 666 0
DWIDTH 12 0
BBX 12 18 0 -2
BITMAP
0000
0000
0E00
0600
0600
0600
0600
0600
0600
0600
0600
0600
0600
0680
0780
0300
0000
0000
ENDCHAR
STARTCHAR uni006d
ENCODING 109
SWIDTH 666 0
DWIDTH 12 0
BBX 12 18 0 -2
BITMAP
0000
0000
0000
0000
0000
0000
6CC0
7FE0
7760
6660
6660
6660
6660
6660
6660
6660
0000
0000
ENDCHAR
STARTCHAR uni006e
ENCODING 110
SWIDTH 666 0
DWIDTH 12 0
BBX 12 18 0 -2
BITMAP
0000
0000
0000
0000
0000
0000
6F80
7FC0
70E0
7060
6060
6060
6060
6060
6060
6060
0000
0000
ENDCHAR
STARTCHAR uni006f
ENCODING 111
SWIDTH 666 0
DWIDTH 12 0
BBX 12 18 0 -2
BITMAP
0000
0000
0000
0000
0000
0000
1F80
3FC0
70E0
6060
6060
6060
6060
70E0
3FC0
1F80
0000
0000
ENDCHAR
STARTCHAR uni0070
ENCODING 112
SWIDTH 666 0
DWIDTH 12 0
BBX 12 18 0 -2
BITMAP
0000
0000
0000
0000
0000
0000
6F80
7FC0
70E0
6060
6060
70E0
7FC0
6F80
6000
6000
6000
0000
ENDCHAR
STARTCHAR uni0071
ENCODING 113
SWIDTH 666 0
DWIDTH 12 0
BBX 12 18 0 -2
BITMAP
0000
0000
0000
0000
0000
0000
1F60
3FE0
70E0
6060
6060
70E0
3FE0
1F60
0060
0060
0060
0000
ENDCHAR
STARTCHAR uni0072
ENCODING 114
SWIDTH 666 0
DWIDTH 12 0
BBX 12 18 0 -2
BITMAP
0000
0000
0000
0000
0000
0000
6F80
7FC0
78E0
7060
6000
6000
6000
6000
6000
6000
0000
0000
ENDCHAR
STARTCHAR uni0073
ENCODING 115
SWIDTH 666 0
DWIDTH 12 0
BBX 12 18 0 -2
BITMAP
0000
0000
0000
0000
0000
0000
1F80
3FC0
70E0
7000
3F80
1FC0
00E0
70E0
3FC0
1F80
0000
0000
ENDCHAR
STARTCHAR uni0074
ENCODING 116
SWIDTH 666 0
DWIDTH 12 0
BBX 12 18 0 -2
BITMAP
0000
0000
0000
0000
0600
0600
1F80
1F80
0600
0600
0600
0600
0600
0600
0780
0380
0000
0000
ENDCHAR
STARTCHAR uni0075
ENCODING 117
SWIDTH 666 0
DWIDTH 12 0
BBX 12 18 0 -2
BITMAP
0000
0000
0000
0000
0000
0000
6060
6060
6060
6060
6060
6060
6060
70E0
3FE0
1F60
0000
0000
ENDCHAR
STARTCHAR uni0076
ENCODING 118
SWIDTH 666 0
DWIDTH 12 0
BBX 12 18 0 -2
BITMAP
0000
0000
0000
0000
0000
0000
6060
6060
6060
6060
6060
70E0
39C0
1F80
0F00
0600
0000
0000
ENDCHAR
STARTCHAR uni0077
ENCODING 119
SWIDTH 666 0
DWIDTH 12 0
BBX 12 18 0 -2
BITMAP
0000
0000
0000
0000
0000
0000
6060
6060
6660
6660
6660
6660
6F60
7FE0
39C0
1080
0000
0000
ENDCHAR
STARTCHAR uni0078
ENCODING 120
SWIDTH 666 0
DWIDTH 12 0
BBX 12 18 0 -2
BITMAP
0000
0000
0000
0000
0000
0000
6060
70E0
39C0
1F80
0F00
0F00
1F80
39C0
70E0
6060
0000
0000
ENDCHAR
STARTCHAR uni0079
ENCODING 121
SWIDTH 666 0
DWIDTH 12 0
BBX 12 18 0 -2
BITMAP
0000
0000
0000
0000
0000
0000
6060
6060
6060
6060
7060
3FE0
1FE0
0060
00E0
1FC0
1F80
0000
ENDCHAR
STARTCHAR uni007a
ENCODING 122
SWIDTH 666 0
DWIDTH 12 0
BBX 12 18 0 -2
BITMAP
0000
0000
0000
0000
0000
0000
7FE0
7FE0
01C0
0380
0700
0E00
1C00
3800
7FE0
7FE0
0000
0000
ENDCHAR
STARTCHAR uni25c0
ENCODING 9664
SWIDTH 666 0
DWIDTH 12 0
BBX 12 18 0 -2
BITMAP
0000
0000
0000
0000
0040
01C0
07C0
1FC0
7FC0
7FC0
1FC0
07C0
01C0
0040
0000
0000
0000
0000
ENDCHAR
STARTCHAR uni25b6
ENCODING 9654
SWIDTH 666 0
DWIDTH 12 0
BBX 12 18 0 -2
BITMAP
0000
0000
0000
0000
2000
3800
3E00
3F80
3FE0
3FE0
3F80
3E00
3800
2000
0000
0000
0000
0000
ENDCHAR
STARTCHAR uni25b2
ENCODING 9650
SWIDTH 666 0
DWIDTH 12 0
BBX 12 18 0 -2
BITMAP
0000
0000
0000
0000
0400
0E00
0E00
1F00
1F00
3F80
3F80
7FC0
7FC0
0000
0000
0000
0000
0000
ENDCHAR
STARTCHAR uni25bc
ENCODING 9660
SWIDTH 666 0
DWIDTH 12 0
BBX 12 18 0 -2
BITMAP
0000
0000
0000
0000
7FC0
7FC0
3F80
3F80
1F00
1F00
0E00
0E00
0400
0000
0000
0000
0000
0000
ENDCHAR
STARTCHAR uni2502
ENCODING 9474
SWIDTH 666 0
DWIDTH 12 0
BBX 12 18 0 -2
BITMAP
0600
0600
0600
0600
0600
0600
0600
0600
0600
0600
0600
0600
0600
0600
0600
0600
0600
0600
ENDCHAR
STARTCHAR uni0028
ENCODING 40
SWIDTH 666 0
DWIDTH 12 0
BBX 12 18 0 -2
BITMAP
0000
0000
0180
0380
0700
0600
0600
0600
0600
0600
0600
0600
0600
0700
0380
0180
0000
0000
ENDCHAR
STARTCHAR uni23ce
ENCODING 9166
SWIDTH 666 0
DWIDTH 12 0
BBX 12 18 0 -2
BITMAP
0000
0000
0000
0000
0060
0060
0060
0860
1860
38E0
7FC0
7F80
3800
1800
0800
0000
0000
0000
ENDCHAR
STARTCHAR uni0029
ENCODING 41
SWIDTH 666 0
DWIDTH 12 0
BBX 12 18 0 -2
BITMAP
0000
0000
1800
1C00
0E00
0600
0600
0600
0600
0600
0600
0600
0600
0E00
1C00
1800
0000
0000
ENDCHAR
STARTCHAR uni2192
ENCODING 8594
SWIDTH 666 0
DWIDTH 12 0
BBX 12 18 0 -2
BITMAP
0000
0000
0000
0000
0600
0700
0380
01C0
7FE0
7FE0
01C0
0380
0700
0600
0000
0000
0000
0000
ENDCHAR
STARTCHAR uni2190
ENCODING 8592
SWIDTH 666 0
DWIDTH 12 0
BBX 12 18 0 -2
BITMAP
0000
0000
0000
0000
0600
0E00
1C00
3800
7FE0
7FE0
3800
1C00
0E00
0600
0000
0000
0000
0000
ENDCHAR
STARTCHAR uni2191
ENCODING 8593
SWIDTH 666 0
DWIDTH 12 0
BBX 12 18 0 -2
BITMAP
0000
0000
0600
0F00
1F80
3FC0
76E0
6660
0600
0600
0600
0600
0600
0600
0600
0600
0000
0000
ENDCHAR
STARTCHAR uni2193
ENCODING 8595
SWIDTH 666 0
DWIDTH 12 0
BBX 12 18 0 -2
BITMAP
0000
0000
0600
0600
0600
0600
0600
0600
0600
0600
6660
76E0
3FC0
1F80
0F00
0600
0000
0000
ENDCHAR
STARTCHAR unif00d
ENCODING 61453
SWIDTH 666 0
DWIDTH 12 0
BBX 12 18 0 -2
BITMAP
C000
C000
C000
C000
C000
C000
C000
C000
C000
C000
C000
C000
C000
C000
C000
C000
FFF0
FFF0
ENDCHAR
STARTCHAR unif00e
ENCODING 61454
SWIDTH 666 0
DWIDTH 12 0
BBX 12 18 0 -2
BITMAP
0030
0030
0030
0030
0030
0030
0030
0030
0030
0030
0030
0030
0030
0030
0030
0030
FFF0
FFF0
ENDCHAR
STARTCHAR unif00f
ENCODING 61455
SWIDTH 666 0
DWIDTH 12 0
BBX 12 18 0 -2
BITMAP
FFF0
FFF0
C000
C000
C000
C000
C000
C000
C000
C000
C000
C000
C000
C000
C000
C000
C000
C000
ENDCHAR
STARTCHAR unif010
ENCODING 61456
SWIDTH 666 0
DWIDTH 12 0
BBX 12 18 0 -2
BITMAP
FFF0
FFF0
0030
0030
0030
0030
0030
0030
0030
0030
0030
0030
0030
0030
0030
0030
0030
0030
ENDCHAR
STARTCHAR uni2577
ENCODING 9591
SWIDTH 666 0
DWIDTH 12 0
BBX 12 18 0 -2
BITMAP
0000
0000
0000
0000
0000
0000
0000
0000
0000
0000
0000
0000
0000
0000
0000
0000
FFF0
FFF0
ENDCHAR
STARTCHAR uni2594
ENCODING 9620
SWIDTH 666 0
DWIDTH 12 0
BBX 12 18 0 -2
BITMAP
FFF0
FFF0
0000
0000
0000
0000
0000
0000
0000
0000
0000
0000
0000
0000
0000
0000
0000
0000
ENDCHAR
STARTCHAR uni258f
ENCODING 9615
SWIDTH 666 0
DWIDTH 12 0
BBX 12 18 0 -2
BITMAP
C000
C000
C000
C000
C000
C000
C000
C000
C000
C000
C000
C000
C000
C000
C000
C000
C000
C000
ENDCHAR
STARTCHAR uni2595
ENCODING 9621
SWIDTH 666 0
DWIDTH 12 0
BBX 12 18 0 -2
BITMAP
0030
0030
0030
0030
0030
0030
0030
0030
0030
0030
0030
0030
0030
0030
0030
0030
0030
0030
ENDCHAR
STARTCHAR uni0020
ENCODING 32
SWIDTH 666 0
DWIDTH 12 0
BBX 12 18 0 -2
BITMAP
0000
0000
0000
0000
0000
0000
0000
0000
0000
0000
0000
0000
0000
0000
0000
0000
0000
0000
ENDCHAR
STARTCHAR uni00c4
ENCODING 196
SWIDTH 666 0
DWIDTH 12 0
BBX 12 18 0 -2
BITMAP
0000
30C0
30C0
0000
0000
0600
0F00
1F80
39C0
70E0
6060
7FE0
7FE0
6060
6060
6060
0000
0000
ENDCHAR
STARTCHAR uni00cf
ENCODING 207
SWIDTH 666 0
DWIDTH 12 0
BBX 12 18 0 -2
BITMAP
0000
30C0
30C0
0000
0000
1F80
1F80
0600
0600
0600
0600
0600
0600
0600
1F80
1F80
0000
0000
ENDCHAR
STARTCHAR uni00dc
ENCODING 220
SWIDTH 666 0
DWIDTH 12 0
BBX 12 18 0 -2
BITMAP
0000
30C0
30C0
0000
0000
6060
6060
6060
6060
6060
6060
6060
6060
70E0
3FC0
1F80
0000
0000
ENDCHAR
STARTCHAR uni00cb
ENCODING 203
SWIDTH 666 0
DWIDTH 12 0
BBX 12 18 0 -2
BITMAP
0000
30C0
30C0
0000
0000
7FE0
7FE0
6000
6000
7F80
7F80
6000
6000
6000
7FE0
7FE0
0000
0000
ENDCHAR
STARTCHAR uni00d6
ENCODING 214
SWIDTH 666 0
DWIDTH 12 0
BBX 12 18 0 -2
BITMAP
0000
30C0
30C0
0000
0000
1F80
3FC0
70E0
6060
6060
6060
6060
6060
70E0
3FC0
1F80
0000
0000
ENDCHAR
STARTCHAR uni00c0
ENCODING 192
SWIDTH 666 0
DWIDTH 12 0
BBX 12 18 0 -2
BITMAP
0000
3800
0F00
01C0
0000
0600
0F00
1F80
39C0
70E0
6060
7FE0
7FE0
6060
6060
6060
0000
0000
ENDCHAR
STARTCHAR uni00cc
ENCODING 204
SWIDTH 666 0
DWIDTH 12 0
BBX 12 18 0 -2
BITMAP
0000
3800
0F00
01C0
0000
1F80
1F80
0600
0600
0600
0600
0600
0600
0600
1F80
1F80
0000
0000
ENDCHAR
STARTCHAR uni00d9
ENCODING 217
SWIDTH 666 0
DWIDTH 12 0
BBX 12 18 0 -2
BITMAP
0000
3800
0F00
01C0
0000
6060
6060
6060
6060
6060
6060
6060
6060
70E0
3FC0
1F80
0000
0000
ENDCHAR
STARTCHAR uni00c8
ENCODING 200
SWIDTH 666 0
DWIDTH 12 0
BBX 12 18 0 -2
BITMAP
0000
3800
0F00
01C0
0000
7FE0
7FE0
6000
6000
7F80
7F80
6000
6000
6000
7FE0
7FE0
0000
0000
ENDCHAR
STARTCHAR uni00d2
ENCODING 210
SWIDTH 666 0
DWIDTH 12 0
BBX 12 18 0 -2
BITMAP
0000
3800
0F00
01C0
0000
1F80
3FC0
70E0
6060
6060
6060
6060
6060
70E0
3FC0
1F80
0000
0000
ENDCHAR
STARTCHAR uni00c1
ENCODING 193
SWIDTH 666 0
DWIDTH 12 0
BBX 12 18 0 -2
BITMAP
0000
01C0
0F00
3800
0000
0600
0F00
1F80
39C0
70E0
6060
7FE0
7FE0
6060
6060
6060
0000
0000
ENDCHAR
STARTCHAR uni00cd
ENCODING 205
SWIDTH 666 0
DWIDTH 12 0
BBX 12 18 0 -2
BITMAP
0000
01C0
0F00
3800
0000
1F80
1F80
0600
0600
0600
0600
0600
0600
0600
1F80
1F80
0000
0000
ENDCHAR
STARTCHAR uni00da
ENCODING 218
SWIDTH 666 0
DWIDTH 12 0
BBX 12 18 0 -2
BITMAP
0000
01C0
0F00
3800
0000
6060
6060
6060
6060
6060
6060
6060
6060
70E0
3FC0
1F80
0000
0000
ENDCHAR
STARTCHAR uni00c9
ENCODING 201
SWIDTH 666 0
DWIDTH 12 0
BBX 12 18 0 -2
BITMAP
0000
01C0
0F00
3800
0000
7FE0
7FE0
6000
6000
7F80
7F80
6000
6000
6000
7FE0
7FE0
0000
0000
ENDCHAR
STARTCHAR uni00d3
ENCODING 211
SWIDTH 666 0
DWIDTH 12 0
BBX 12 18 0 -2
BITMAP
0000
01C0
0F00
3800
0000
1F80
3FC0
70E0
6060
6060
6060
6060
6060
70E0
3FC0
1F80
0000
0000
ENDCHAR
STARTCHAR uni00c3
ENCODING 195
SWIDTH 666 0
DWIDTH 12 0
BBX 12 18 0 -2
BITMAP
0000
3C20
6660
43C0
0000
0600
0F00
1F80
39C0
70E0
6060
7FE0
7FE0
6060
6060
6060
0000
0000
ENDCHAR
STARTCHAR uni0128
ENCODING 296
SWIDTH 666 0
DWIDTH 12 0
BBX 12 18 0 -2
BITMAP
0000
3C20
6660
43C0
0000
1F80
1F80
0600
0600
0600
0600
0600
0600
0600
1F80
1F80
0000
0000
ENDCHAR
STARTCHAR uni0168
ENCODING 360
SWIDTH 666 0
DWIDTH 12 0
BBX 12 18 0 -2
BITMAP
0000
3C20
6660
43C0
0000
6060
6060
6060
6060
6060
6060
6060
6060
70E0
3FC0
1F80
0000
0000
ENDCHAR
STARTCHAR uni1ebc
ENCODING 7868
SWIDTH 666 0
DWIDTH 12 0
BBX 12 18 0 -2
BITMAP
0000
3C20
6660
43C0
0000
7FE0
7FE0
6000
6000
7F80
7F80
6000
6000
6000
7FE0
7FE0
0000
0000
ENDCHAR
STARTCHAR uni00d5
ENCODING 213
SWIDTH 666 0
DWIDTH 12 0
BBX 12 18 0 -2
BITMAP
0000
3C20
6660
43C0
0000
1F80
3FC0
70E0
6060
6060
6060
6060
6060
70E0
3FC0
1F80
0000
0000
ENDCHAR
STARTCHAR uni00c2
ENCODING 194
SWIDTH 666 0
DWIDTH 12 0
BBX 12 18 0 -2
BITMAP
0000
0600
0F00
39C0
0000
0600
0F00
1F80
39C0
70E0
6060
7FE0
7FE0
6060
6060
6060
0000
0000
ENDCHAR
STARTCHAR uni00ce
ENCODING 206
SWIDTH 666 0
DWIDTH 12 0
BBX 12 18 0 -2
BITMAP
0000
0600
0F00
39C0
0000
1F80
1F80
0600
0600
0600
0600
0600
0600
0600
1F80
1F80
0000
0000
ENDCHAR
STARTCHAR uni00db
ENCODING 219
SWIDTH 666 0
DWIDTH 12 0
BBX 12 18 0 -2
BITMAP
0000
0600
0F00
39C0
0000
6060
6060
6060
6060
6060
6060
6060
6060
70E0
3FC0
1F80
0000
0000
ENDCHAR
STARTCHAR uni00ca
ENCODING 202
SWIDTH 666 0
DWIDTH 12 0
BBX 12 18 0 -2
BITMAP
0000
0600
0F00
39C0
0000
7FE0
7FE0
6000
6000
7F80
7F80
6000
6000
6000
7FE0
7FE0
0000
0000
ENDCHAR
STARTCHAR uni00d4
ENCODING 212
SWIDTH 666 0
DWIDTH 12 0
BBX 12 18 0 -2
BITMAP
0000
0600
0F00
39C0
0000
1F80
3FC0
70E0
6060
6060
6060
6060
6060
70E0
3FC0
1F80
0000
0000
ENDCHAR
STARTCHAR uni00c5
ENCODING 197
SWIDTH 666 0
DWIDTH 12 0
BBX 12 18 0 -2
BITMAP
0000
0F00
0900
0F00
0000
0F00
1F80
39C0
70E0
6060
6060
7FE0
7FE0
6060
6060
6060
0000
0000
ENDCHAR
STARTCHAR uni00d1
ENCODING 209
SWIDTH 666 0
DWIDTH 12 0
BBX 12 18 0 -2
BITMAP
0000
3C20
6660
43C0
0000
6060
6060
7060
7860
7C60
6E60
6760
63E0
61E0
60E0
6060
0000
0000
ENDCHAR
STARTCHAR uni0178
ENCODING 376
SWIDTH 666 0
DWIDTH 12 0
BBX 12 18 0 -2
BITMAP
0000
30C0
30C0
0000
6060
6060
6060
70E0
39C0
1F80
0F00
0600
0600
0600
0600
0600
0000
0000
ENDCHAR
STARTCHAR uni00c6
ENCODING 198
SWIDTH 666 0
DWIDTH 12 0
BBX 12 18 0 -2
BITMAP
0000
0000
03E0
07E0
0F00
0F00
1F00
1B00
33E0
33E0
6300
6300
7F00
7F00
63E0
63E0
0000
0000
ENDCHAR
STARTCHAR uni00c7
ENCODING 199
SWIDTH 666 0
DWIDTH 12 0
BBX 12 18 0 -2
BITMAP
0000
0000
1F80
3FC0
70E0
6060
6000
6000
6000
6000
6060
70E0
3FC0
1F80
0700
0E00
3C00
0000
ENDCHAR
STARTCHAR uni0104
ENCODING 260
SWIDTH 666 0
DWIDTH 12 0
BBX 12 18 0 -2
BITMAP
0000
0000
0F00
1F80
39C0
70E0
6060
6060
7FE0
7FE0
6060
6060
6060
6060
01C0
0380
0F00
0000
ENDCHAR
STARTCHAR uni0118
ENCODING 280
SWIDTH 666 0
DWIDTH 12 0
BBX 12 18 0 -2
BITMAP
0000
0000
7FE0
7FE0
6000
6000
6000
7F80
7F80
6000
6000
6000
7FE0
7FE0
0380
0700
1E00
0000
ENDCHAR
STARTCHAR uni00df
ENCODING 223
SWIDTH 666 0
DWIDTH 12 0
BBX 12 18 0 -2
BITMAP
0000
0000
0000
0F00
1F80
39C0
30C0
31C0
3380
3300
3180
30C0
30C0
30C0
31C0
7B80
0000
0000
ENDCHAR
STARTCHAR uni00d8
ENCODING 216
SWIDTH 666 0
DWIDTH 12 0
BBX 12 18 0 -2
BITMAP
0000
0000
0000
0060
1FE0
3FC0
71E0
63E0
6360
6660
6660
6C60
6C60
78E0
3FC0
7F80
6000
0000
ENDCHAR
STARTCHAR uni00a5
ENCODING 165
SWIDTH 666 0
DWIDTH 12 0
BBX 12 18 0 -2
BITMAP
0000
0000
0000
6060
70E0
39C0
1F80
7FE0
7FE0
0600
7FE0
7FE0
0600
0600
0600
0000
0000
0000
ENDCHAR
STARTCHAR uni0024
ENCODING 36
SWIDTH 666 0
DWIDTH 12 0
BBX 12 18 0 -2
BITMAP
0000
0000
0600
1F80
3FC0
76E0
6660
7600
3F80
1FC0
06E0
6660
76E0
3FC0
1F80
0600
0000
0000
ENDCHAR
STARTCHAR uni00a3
ENCODING 163
SWIDTH 666 0
DWIDTH 12 0
BBX 12 18 0 -2
BITMAP
0000
0000
0FC0
1FE0
1C60
1800
1800
1F80
7FC0
7CC0
1800
1800
1800
5800
7FE0
7FE0
0000
0000
ENDCHAR
STARTCHAR uni0023
ENCODING 35
SWIDTH 666 0
DWIDTH 12 0
BBX 12 18 0 -2
BITMAP
0000
0000
0180
1980
1980
19E0
1FE0
7F80
7980
19E0
1FE0
7F80
7980
1980
1980
1800
0000
0000
ENDCHAR
STARTCHAR unif016
ENCODING 61462
SWIDTH 666 0
DWIDTH 12 0
BBX 12 18 0 -2
BITMAP
FFF0
FFF0
C000
8000
0000
7FF0
4460
5ED0
46C0
76D0
46D0
7FF0
0000
8000
C000
FFF0
FFF0
FFF0
ENDCHAR
STARTCHAR unif017
ENCODING 61463
SWIDTH 666 0
DWIDTH 12 0
BBX 12 18 0 -2
BITMAP
FFF0
FFF0
0030
0010
0000
FFE0
6620
AB60
2B60
A760
AB60
FFE0
0000
0010
0030
FFF0
FFF0
FFF0
ENDCHAR
STARTCHAR unif018
ENCODING 61464
SWIDTH 666 0
DWIDTH 12 0
BBX 12 18 0 -2
BITMAP
FFF0
FFF0
C000
8000
0000
7FF0
6310
6FB0
63B0
7BB0
63B0
7FF0
0000
8000
C000
FFF0
FFF0
FFF0
ENDCHAR
STARTCHAR unif019
ENCODING 61465
SWIDTH 666 0
DWIDTH 12 0
BBX 12 18 0 -2
BITMAP
FFF0
FFF0
0030
0010
0000
FFE0
8C60
AD60
AC60
ADE0
8DE0
FFE0
0000
0010
0030
FFF0
FFF0
FFF0
ENDCHAR
STARTCHAR unif01a
ENCODING 61466
SWIDTH 666 0
DWIDTH 12 0
BBX 12 18 0 -2
BITMAP
FFF0
FFF0
E000
8000
0000
7FF0
70D0
77C0
70C0
77D0
70D0
7FF0
0000
8000
C000
FFF0
FFF0
FFF0
ENDCHAR
STARTCHAR unif01b
ENCODING 61467
SWIDTH 666 0
DWIDTH 12 0
BBX 12 18 0 -2
BITMAP
FFF0
FFF0
0030
0010
0000
FFE0
D8E0
DA60
1B60
9A60
D8E0
FFE0
0000
0010
0030
FFF0
FFF0
FFF0
ENDCHAR
STARTCHAR uni2592
ENCODING 9618
SWIDTH 666 0
DWIDTH 12 0
BBX 12 18 0 -2
BITMAP
AAA0
5550
AAA0
5550
AAA0
5550
AAA0
5550
AAA0
5550
AAA0
5550
AAA0
5550
AAA0
5550
AAA0
5550
ENDCHAR
STARTCHAR unif01c
ENCODING 61468
SWIDTH 666 0
DWIDTH 12 0
BBX 12 18 0 -2
BITMAP
AAA0
AAA0
AAA0
AAA0
AAA0
AAA0
AAA0
AAA0
AAA0
AAA0
AAA0
AAA0
AAA0
AAA0
AAA0
AAA0
AAA0
AAA0
ENDCHAR
STARTCHAR unif01d
ENCODING 61469
SWIDTH 666 0
DWIDTH 12 0
BBX 12 18 0 -2
BITMAP
0000
FFF0
0000
FFF0
0000
FFF0
0000
FFF0
0000
FFF0
0000
FFF0
0000
FFF0
0000
FFF0
0000
FFF0
ENDCHAR
STARTCHAR uni23f2
ENCODING 9202
SWIDTH 666 0
DWIDTH 12 0
BBX 12 18 0 -2
BITMAP
0000
0000
0000
0000
03C0
2060
1020
5820
4C20
4420
4020
4020
4020
6060
3FC0
0000
0000
0000
ENDCHAR
STARTCHAR uni25cb
ENCODING 9675
SWIDTH 666 0
DWIDTH 12 0
BBX 12 18 0 -2
BITMAP
0000
0000
0000
0F00
30C0
6060
C030
8010
8010
8010
8010
C030
6060
30C0
0F00
0000
0000
0000
ENDCHAR
STARTCHAR uni25c9
ENCODING 9673
SWIDTH 666 0
DWIDTH 12 0
BBX 12 18 0 -2
BITMAP
0000
0000
0000
0F00
30C0
6060
CF30
9F90
9F90
9F90
9F90
CF30
6060
30C0
0F00
0000
0000
0000
ENDCHAR
STARTCHAR unif013
ENCODING 61459
SWIDTH 666 0
DWIDTH 12 0
BBX 12 18 0 -2
BITMAP
FFF0
8000
FFF0
FFF0
DD00
C970
C170
D570
D510
D570
DD70
DD70
DD70
DD00
FFF0
FFF0
8000
FFF0
ENDCHAR
STARTCHAR unif01f
ENCODING 61471
SWIDTH 666 0
DWIDTH 12 0
BBX 12 18 0 -2
BITMAP
FFF0
0010
FFF0
FFF0
B5B0
B5B0
B5B0
95B0
95B0
A5B0
A5B0
B5B0
B5B0
B670
FFF0
FFF0
0010
FFF0
ENDCHAR
STARTCHAR unif020
ENCODING 61472
SWIDTH 666 0
DWIDTH 12 0
BBX 12 18 0 -2
BITMAP
0000
5550
5550
0000
0000
7C00
7C00
18E0
31B0
61B0
7DB0
7CE0
0000
0000
5550
5550
0000
0000
ENDCHAR
STARTCHAR unif021
ENCODING 61473
SWIDTH 666 0
DWIDTH 12 0
BBX 12 18 0 -2
BITMAP
0000
5550
5550
0000
0000
0000
0000
39B0
6DF0
6D50
6D10
3910
0000
0000
5550
5550
0000
0000
ENDCHAR
STARTCHAR unif022
ENCODING 61474
SWIDTH 666 0
DWIDTH 12 0
BBX 12 18 0 -2
BITMAP
0000
5550
5550
0000
0000
6300
6300
6360
6B00
6B60
7F60
3660
0000
0000
5550
5550
0000
0000
ENDCHAR
STARTCHAR unif023
ENCODING 61475
SWIDTH 666 0
DWIDTH 12 0
BBX 12 18 0 -2
BITMAP
0000
5550
5550
0000
1800
1800
1800
19C0
7B20
DBE0
DB00
79E0
0000
0000
5550
5550
0000
0000
ENDCHAR
STARTCHAR unif024
ENCODING 61476
SWIDTH 666 0
DWIDTH 12 0
BBX 12 18 0 -2
BITMAP
0000
0000
0100
0180
0FC0
1FC0
3180
6100
6000
6000
6000
6000
3000
1FC0
0FC0
0000
0000
0000
ENDCHAR
STARTCHAR unif025
ENCODING 61477
SWIDTH 666 0
DWIDTH 12 0
BBX 12 18 0 -2
BITMAP
0000
0000
0000
0000
3F00
3F80
00C0
0060
0060
0060
0060
0860
18C0
3F80
3F00
1800
0800
0000
ENDCHAR
STARTCHAR unif026
ENCODING 61478
SWIDTH 666 0
DWIDTH 12 0
BBX 12 18 0 -2
BITMAP
0000
0000
0FF0
3FF0
3010
6030
6070
60D0
6010
6010
60D0
6070
6030
3010
3FF0
0FF0
0000
0000
ENDCHAR
STARTCHAR unif027
ENCODING 61479
SWIDTH 666 0
DWIDTH 12 0
BBX 12 18 0 -2
BITMAP
0000
0000
FF00
FFC0
80C0
C060
E060
B060
8060
8060
B060
E060
C060
80C0
FFC0
FF00
0000
0000
ENDCHAR
STARTCHAR unif028
ENCODING 61480
SWIDTH 666 0
DWIDTH 12 0
BBX 12 18 0 -2
BITMAP
0000
0000
0FF0
3FF0
3000
6300
6600
6C00
7FF0
7FF0
6C00
6600
6300
3000
3FF0
0FF0
0000
0000
ENDCHAR
STARTCHAR unif029
ENCODING 61481
SWIDTH 666 0
DWIDTH 12 0
BBX 12 18 0 -2
BITMAP
0000
0000
FF00
FFC0
00C0
0C60
0660
0360
FFE0
FFE0
0360
0660
0C60
00C0
FFC0
FF00
0000
0000
ENDCHAR
STARTCHAR unif02a
ENCODING 61482
SWIDTH 666 0
DWIDTH 12 0
BBX 12 18 0 -2
BITMAP
0000
0000
0C00
0600
0300
0180
00C0
0060
0030
0010
0030
0060
00C0
0180
0300
0600
0C00
0000
ENDCHAR
STARTCHAR unif02b
ENCODING 61483
SWIDTH 666 0
DWIDTH 12 0
BBX 12 18 0 -2
BITMAP
0000
0000
0300
0600
0C00
1800
3000
6000
C000
8000
C000
6000
3000
1800
0C00
0600
0300
0000
ENDCHAR
STARTCHAR unif02c
ENCODING 61484
SWIDTH 666 0
DWIDTH 12 0
BBX 12 18 0 -2
BITMAP
FFF0
8000
FFF0
FFF0
FFF0
DD00
C960
C160
D560
D560
DD60
DD60
DD60
DD00
FFF0
FFF0
8000
FFF0
ENDCHAR
STARTCHAR unif02d
ENCODING 61485
SWIDTH 666 0
DWIDTH 12 0
BBX 12 18 0 -2
BITMAP
FFF0
0010
FFF0
FFF0
FFF0
8E10
B6F0
BAF0
BAF0
BA30
BAF0
BAF0
B6F0
8E10
FFF0
FFF0
0010
FFF0
ENDCHAR
STARTCHAR unif02e
ENCODING 61486
SWIDTH 666 0
DWIDTH 12 0
BBX 12 18 0 -2
BITMAP
0000
FFF0
FFF0
FFF0
FFF0
DD70
DD70
DD70
DD50
DD20
DD60
D560
D560
EB60
FFF0
FFF0
0000
FFF0
ENDCHAR
STARTCHAR unif02f
ENCODING 61487
SWIDTH 666 0
DWIDTH 12 0
BBX 12 18 0 -2
BITMAP
0000
FFF0
FFF0
FFF0
FFF0
FFF0
BFF0
FFF0
B730
A2D0
B610
B6F0
B4D0
BB30
FFF0
FFF0
0000
FFF0
ENDCHAR
STARTCHAR unif030
ENCODING 61488
SWIDTH 666 0
DWIDTH 12 0
BBX 12 18 0 -2
BITMAP
FFF0
FFF0
FFF0
C1F0
9CF0
A2F0
A2F0
A2F0
A200
BE90
A290
A290
A290
A290
A260
8000
FFF0
FFF0
ENDCHAR
STARTCHAR unif031
ENCODING 61489
SWIDTH 666 0
DWIDTH 12 0
BBX 12 18 0 -2
BITMAP
FFF0
FFF0
FFF0
FFF0
FFF0
FFF0
FFF0
FFF0
8C10
2190
7250
2250
2250
2250
1990
0010
FFF0
FFF0
ENDCHAR
STARTCHAR unif032
ENCODING 61490
SWIDTH 666 0
DWIDTH 12 0
BBX 12 18 0 -2
BITMAP
FFF0
FFF0
FFF0
FFF0
C9F0
A2F0
B6F0
AAF0
A200
A260
A210
A270
A290
A290
A270
8000
FFF0
FFF0
ENDCHAR
STARTCHAR unif033
ENCODING 61491
SWIDTH 666 0
DWIDTH 12 0
BBX 12 18 0 -2
BITMAP
FFF0
FFF0
FFF0
FFF0
FFF0
FFF0
FFF0
FFF0
8100
2C90
3290
2290
2290
2290
A260
0000
FFF0
FFF0
ENDCHAR
STARTCHAR unif034
ENCODING 61492
SWIDTH 666 0
DWIDTH 12 0
BBX 12 18 0 -2
BITMAP
FFC0
FFC0
FFC0
FFC0
FC40
FD40
FD40
FD40
8140
3140
0940
3940
4940
4940
3D40
0040
FFC0
FFC0
ENDCHAR
STARTCHAR unif035
ENCODING 61493
SWIDTH 666 0
DWIDTH 12 0
BBX 12 18 0 -2
BITMAP
0000
0000
C000
C000
C000
C000
C000
C000
C000
C000
C000
C000
C000
C000
C000
C000
C000
C000
ENDCHAR
STARTCHAR unif036
ENCODING 61494
SWIDTH 666 0
DWIDTH 12 0
BBX 12 18 0 -2
BITMAP
C000
C000
0000
0000
0000
0000
0000
0000
0000
0000
0000
0000
0000
0000
0000
0000
0000
0000
ENDCHAR
STARTCHAR unif037
ENCODING 61495
SWIDTH 666 0
DWIDTH 12 0
BBX 12 18 0 -2
BITMAP
0000
0000
0000
0000
0000
0000
0000
0000
0000
0000
0000
0000
0000
0000
0000
0000
B6D0
B6D0
ENDCHAR
STARTCHAR unif038
ENCODING 61496
SWIDTH 666 0
DWIDTH 12 0
BBX 12 18 0 -2
BITMAP
FFF0
8010
8010
8010
BF10
BF90
B1D0
B0D0
B1D0
BF90
BF10
B390
B1D0
B0D0
8010
8010
8010
FFF0
ENDCHAR
STARTCHAR unif039
ENCODING 61497
SWIDTH 666 0
DWIDTH 12 0
BBX 12 18 0 -2
BITMAP
FFF0
8010
8010
8010
B010
B010
B010
B010
B010
B010
B010
B010
BFD0
BFD0
8010
8010
8010
FFF0
ENDCHAR
STARTCHAR unif03a
ENCODING 61498
SWIDTH 666 0
DWIDTH 12 0
BBX 12 18 0 -2
BITMAP
FFF0
8010
8010
8010
BF90
BFD0
B0D0
B0D0
BF90
BF90
B0D0
B0D0
BFD0
BF90
8010
8010
8010
FFF0
ENDCHAR
STARTCHAR unif03b
ENCODING 61499
SWIDTH 666 0
DWIDTH 12 0
BBX 12 18 0 -2
BITMAP
FFF0
8010
8010
8010
8F10
9F90
B9D0
B0D0
B010
B3D0
B0D0
B9D0
9F90
8F10
8010
8010
8010
FFF0
ENDCHAR
STARTCHAR unif03c
ENCODING 61500
SWIDTH 666 0
DWIDTH 12 0
BBX 12 18 0 -2
BITMAP
0100
0300
0700
6D00
7B00
3000
0300
0780
0DC0
1B60
3230
1870
0C70
0620
0300
0700
0700
0200
ENDCHAR
STARTCHAR unif03d
ENCODING 61501
SWIDTH 666 0
DWIDTH 12 0
BBX 12 18 0 -2
BITMAP
6000
7000
7800
7C00
7E00
7F00
7F80
7FC0
7E20
6F00
6F00
4780
4780
03C0
03C0
01C0
01C0
0000
ENDCHAR
STARTCHAR unif03e
ENCODING 61502
SWIDTH 666 0
DWIDTH 12 0
BBX 12 18 0 -2
BITMAP
0000
0000
0000
70E0
4910
4510
4500
4500
4900
70E0
4810
4410
4410
4510
4910
70E0
0000
0000
ENDCHAR
STARTCHAR unif03f
ENCODING 61503
SWIDTH 666 0
DWIDTH 12 0
BBX 12 18 0 -2
BITMAP
0000
0000
0000
39C0
4520
4510
4110
4110
4120
39C0
0500
0500
0500
4500
4500
3900
0000
0000
ENDCHAR
STARTCHAR unif040
ENCODING 61504
SWIDTH 666 0
DWIDTH 12 0
BBX 12 18 0 -2
BITMAP
0000
0000
0000
41C0
4120
4110
4110
4110
4120
41C0
4100
4100
4100
4100
4100
7D00
0000
0000
ENDCHAR
STARTCHAR unif041
ENCODING 61505
SWIDTH 666 0
DWIDTH 12 0
BBX 12 18 0 -2
BITMAP
0000
0000
0000
7DC0
4120
4110
4110
4110
4120
79C0
4100
4100
4100
4100
4100
7D00
0000
0000
ENDCHAR
STARTCHAR uni33c8
ENCODING 13256
SWIDTH 666 0
DWIDTH 12 0
BBX 12 18 0 -2
BITMAP
0000
0000
0000
05C0
0520
0510
0510
0510
0520
1DC0
2520
4510
4510
4510
2520
1DC0
0000
0000
ENDCHAR
STARTCHAR unif042
ENCODING 61506
SWIDTH 666 0
DWIDTH 12 0
BBX 12 18 0 -2
BITMAP
0000
0030
0070
00E0
00C0
01C0
01C0
03C0
03C0
07E0
07E0
0FF0
0FF0
1FE0
1FE0
1FF0
0FF0
0000
ENDCHAR
STARTCHAR unif043
ENCODING 61507
SWIDTH 666 0
DWIDTH 12 0
BBX 12 18 0 -2
BITMAP
0000
C000
E000
7000
3000
3800
3800
3C00
3C00
7E00
7E00
FF00
FF00
7F80
7F80
FF80
FF00
0000
ENDCHAR
STARTCHAR U+1f511
ENCODING 128273
SWIDTH 666 0
DWIDTH 12 0
BBX 12 18 0 -2
BITMAP
0000
0000
0000
1FC0
3060
3FE0
38E0
3FE0
1FC0
0700
0300
0F00
0700
0300
0700
0300
0300
0000
ENDCHAR
STARTCHAR unif044
ENCODING 61508
SWIDTH 666 0
DWIDTH 12 0
BBX 12 18 0 -2
BITMAP
0030
0030
0000
0000
0030
0030
0000
0000
0030
0030
0000
0000
0030
0030
0000
0000
0030
0030
ENDCHAR
STARTCHAR unif045
ENCODING 61509
SWIDTH 666 0
DWIDTH 12 0
BBX 12 18 0 -2
BITMAP
0000
0000
0000
0000
0000
0400
0400
0400
0000
71C0
0000
0400
0400
0400
0000
0000
0000
0000
ENDCHAR
STARTCHAR unif046
ENCODING 61510
SWIDTH 666 0
DWIDTH 12 0
BBX 12 18 0 -2
BITMAP
C000
C000
0000
0000
C000
C000
0000
0000
C000
C000
0000
0000
C000
C000
0000
0000
C000
C000
ENDCHAR
STARTCHAR unif047
ENCODING 61511
SWIDTH 666 0
DWIDTH 12 0
BBX 12 18 0 -2
BITMAP
0000
0000
1860
1860
1860
1CE0
1FE0
1FE0
1B60
1B60
1860
1860
1860
1860
1860
1860
0000
0000
ENDCHAR
STARTCHAR uni3390
ENCODING 13200
SWIDTH 666 0
DWIDTH 12 0
BBX 12 18 0 -2
BITMAP
0000
0000
CC00
CC00
CC00
CC00
CC00
CC00
FDF0
FDF0
CC30
CC70
CCE0
CDC0
CDF0
CDF0
0000
0000
ENDCHAR
STARTCHAR unif048
ENCODING 61512
SWIDTH 666 0
DWIDTH 12 0
BBX 12 18 0 -2
BITMAP
0000
0000
0C00
0C00
0C00
0C00
0C00
0C00
0CE0
0DC0
0F80
0F00
0F80
0DC0
0CE0
0C60
0000
0000
ENDCHAR
STARTCHAR uni003c
ENCODING 60
SWIDTH 666 0
DWIDTH 12 0
BBX 12 18 0 -2
BITMAP
0000
0000
0180
0300
0600
0C00
1800
3000
6000
6000
3000
1800
0C00
0600
0300
0180
0000
0000
ENDCHAR
STARTCHAR uni003e
ENCODING 62
SWIDTH 666 0
DWIDTH 12 0
BBX 12 18 0 -2
BITMAP
0000
0000
1800
0C00
0600
0300
0180
00C0
0060
0060
00C0
0180
0300
0600
0C00
1800
0000
0000
ENDCHAR
STARTCHAR unif049
ENCODING 61513
SWIDTH 666 0
DWIDTH 12 0
BBX 12 18 0 -2
BITMAP
0000
0FF0
1FC0
1F80
1F10
0F30
0F30
07F0
07F0
03E0
03E0
01F0
01F0
00E0
00E0
0070
0030
0000
ENDCHAR
STARTCHAR unif04a
ENCODING 61514
SWIDTH 666 0
DWIDTH 12 0
BBX 12 18 0 -2
BITMAP
0000
FF00
3F80
1F80
8F80
CF00
CF00
9E00
3E00
7C00
7C00
F800
F800
7000
7000
E000
C000
0000
ENDCHAR
STARTCHAR U+1f50a
ENCODING 128266
SWIDTH 666 0
DWIDTH 12 0
BBX 12 18 0 -2
BITMAP
0000
0000
0600
0E00
1A00
F380
A3C0
A3E0
A3E0
A3E0
A3E0
A3C0
F380
1A00
0E00
0600
0000
0000
ENDCHAR
STARTCHAR U+1f509
ENCODING 128265
SWIDTH 666 0
DWIDTH 12 0
BBX 12 18 0 -2
BITMAP
0000
0000
0600
0E00
1A00
F380
A240
A220
A220
A220
A220
A240
F380
1A00
0E00
0600
0000
0000
ENDCHAR
STARTCHAR unif04b
ENCODING 61515
SWIDTH 666 0
DWIDTH 12 0
BBX 12 18 0 -2
BITMAP
0000
0300
0600
0C00
1800
0000
0000
0000
0F80
0000
0000
0000
1800
0C00
0600
0300
0000
0000
ENDCHAR
STARTCHAR unif04c
ENCODING 61516
SWIDTH 666 0
DWIDTH 12 0
BBX 12 18 0 -2
BITMAP
0600
0600
0000
0000
0600
0600
0000
0000
0600
0600
0000
0000
0600
0600
0000
0000
0600
0600
ENDCHAR
STARTCHAR unif04d
ENCODING 61517
SWIDTH 666 0
DWIDTH 12 0
BBX 12 18 0 -2
BITMAP
0000
0000
0600
0600
0000
0000
0600
0600
0000
0000
0600
0600
0000
0000
0600
0600
0000
0000
ENDCHAR
STARTCHAR unif04e
ENCODING 61518
SWIDTH 666 0
DWIDTH 12 0
BBX 12 18 0 -2
BITMAP
0000
0010
0610
0600
0070
00F0
01C0
0380
1B00
1B00
0380
01C0
00F0
0070
0600
0610
0010
0000
ENDCHAR
STARTCHAR unif04f
ENCODING 61519
SWIDTH 666 0
DWIDTH 12 0
BBX 12 18 0 -2
BITMAP
0000
8000
8000
0600
E600
F000
3800
1C00
0D80
0D80
1C00
3800
F000
E600
0600
8000
8000
0000
ENDCHAR
STARTCHAR unif050
ENCODING 61520
SWIDTH 666 0
DWIDTH 12 0
BBX 12 18 0 -2
BITMAP
B6D0
B6D0
0000
0000
0000
0000
0000
0000
0000
0000
0000
0000
0000
0000
0000
0000
0000
0000
ENDCHAR
STARTCHAR uni2666
ENCODING 9830
SWIDTH 666 0
DWIDTH 12 0
BBX 12 18 0 -2
BITMAP
0000
0000
0000
0600
0F00
1F80
3FC0
7FE0
7FE0
7FE0
3FC0
1F80
0F00
0600
0000
0000
0000
0000
ENDCHAR
STARTCHAR uni2660
ENCODING 9824
SWIDTH 666 0
DWIDTH 12 0
BBX 12 18 0 -2
BITMAP
0000
0000
0000
0600
0F00
1F80
3FC0
7FE0
7FE0
7FE0
7FE0
36C0
0600
3FC0
0000
0000
0000
0000
ENDCHAR
STARTCHAR uni2665
ENCODING 9829
SWIDTH 666 0
DWIDTH 12 0
BBX 12 18 0 -2
BITMAP
0000
0000
0000
30C0
79E0
7FE0
7FE0
7FE0
7FE0
7FE0
3FC0
1F80
0F00
0600
0000
0000
0000
0000
ENDCHAR
STARTCHAR uni2663
ENCODING 9827
SWIDTH 666 0
DWIDTH 12 0
BBX 12 18 0 -2
BITMAP
0000
0000
0000
0600
0F00
1F80
1F80
2F40
7FE0
7FE0
7FE0
36C0
0600
3FC0
0000
0000
0000
0000
ENDCHAR
ENDFONT
